# xmcd
#
# Track frame offsets: 
#        150
#        8962
#        26225
#        29940
#        52075
#        74117
#        85015
#        110055
#        119212
#        138697
#        163787
#        168302
#        188162
#        192415
#        228412
#        238910
#        256470
#
# Disc length: 3506 seconds
#
# Revision: 1
# Processed by: cddbd v1.5.2PL0 Copyright (c) Steve Scherf et al.
# Submitted via: ExactAudioCopy v0.99pb4
#
DISCID=0f0db011
DTITLE=Sleepy's Theme - The Vinyl Room
DYEAR=1998
DGENRE=R&B
TTITLE0=Intro
TTITLE1=Can't Let Go
TTITLE2=Court Room
TTITLE3=Choked Out Saturday Night
TTITLE4=Still Smokin'
TTITLE5=The Carwash
TTITLE6=Simply Beautiful
TTITLE7=Bong Experience Dude!!
TTITLE8=Fallin' In Love Again
TTITLE9=Curse On You
TTITLE10=Black Cherry
TTITLE11=Grind On
TTITLE12=The Ride (Private Party)
TTITLE13=Private Party
TTITLE14=Conversation
TTITLE15=Menage A Trois
TTITLE16=4:30 AM
EXTD=
EXTT0=
EXTT1=
EXTT2=
EXTT3=
EXTT4=
EXTT5=
EXTT6=
EXTT7=
EXTT8=
EXTT9=
EXTT10=
EXTT11=
EXTT12=
EXTT13=
EXTT14=
EXTT15=
EXTT16=
PLAYORDER=
